<svg id="visual" viewBox="0 0 960 540" width="960" height="540" xmlns="http://www.w3.org/2000/svg" xmlns:xlink="http://www.w3.org/1999/xlink" version="1.1"><path d="M827 540L819 463L845 386L823 309L855 231L813 154L803 77L803 0L960 0L960 77L960 154L960 231L960 309L960 386L960 463L960 540Z" fill="#808080"></path><path d="M891 540L843 463L880 386L839 309L844 231L856 154L862 77L873 0L960 0L960 77L960 154L960 231L960 309L960 386L960 463L960 540Z" fill="#606060"></path><path d="M880 540L895 463L892 386L886 309L910 231L890 154L903 77L914 0L960 0L960 77L960 154L960 231L960 309L960 386L960 463L960 540Z" fill="#414141"></path><path d="M940 540L912 463L909 386L922 309L916 231L910 154L937 77L904 0L960 0L960 77L960 154L960 231L960 309L960 386L960 463L960 540Z" fill="#252525"></path></svg>