<svg id="visual" viewBox="0 0 960 540" width="960" height="540" xmlns="http://www.w3.org/2000/svg" xmlns:xlink="http://www.w3.org/1999/xlink" version="1.1"><path d="M693 540L677 463L730 386L685 309L749 231L665 154L646 77L646 0L960 0L960 77L960 154L960 231L960 309L960 386L960 463L960 540Z" fill="#808080"></path><path d="M821 540L725 463L799 386L718 309L728 231L752 154L762 77L784 0L960 0L960 77L960 154L960 231L960 309L960 386L960 463L960 540Z" fill="#606060"></path><path d="M799 540L830 463L823 386L811 309L860 231L819 154L844 77L868 0L960 0L960 77L960 154L960 231L960 309L960 386L960 463L960 540Z" fill="#414141"></path><path d="M920 540L864 463L856 386L883 309L870 231L860 154L912 77L848 0L960 0L960 77L960 154L960 231L960 309L960 386L960 463L960 540Z" fill="#252525"></path></svg>